<?xml version="1.0" standalone="no"?>
<!DOCTYPE svg PUBLIC "-//W3C//DTD SVG 20010904//EN"
 "http://www.w3.org/TR/2001/REC-SVG-20010904/DTD/svg10.dtd">
<svg version="1.0" xmlns="http://www.w3.org/2000/svg"
 width="1920.000000pt" height="1080.000000pt" viewBox="0 0 1920.000000 1080.000000"
 preserveAspectRatio="xMidYMid meet">

<g transform="translate(0.000000,1080.000000) scale(0.100000,-0.100000)"
fill="#000000" stroke="none">
<path d="M8355 8403 c-8 -19 -62 -175 -72 -208 -12 -38 -153 -310 -197 -380
-24 -38 -69 -99 -99 -135 -31 -36 -69 -83 -85 -105 -35 -47 -199 -205 -303
-290 -71 -58 -194 -145 -205 -145 -3 0 -24 -13 -47 -29 -34 -23 -163 -88 -262
-131 -56 -25 -151 -62 -164 -65 -63 -13 -86 -39 -50 -55 72 -34 115 -51 162
-64 15 -5 27 -13 27 -19 0 -6 3 -7 6 -4 4 4 19 0 33 -7 32 -17 53 -25 161 -67
47 -17 101 -40 120 -49 19 -10 46 -22 60 -27 41 -17 118 -49 175 -73 31 -13
69 -29 120 -50 17 -7 44 -18 60 -25 17 -7 41 -17 55 -23 14 -5 43 -17 65 -27
62 -26 83 -34 113 -46 15 -6 41 -17 57 -24 34 -15 69 -27 73 -25 1 0 15 -5 30
-13 27 -14 75 -35 122 -54 14 -6 39 -16 55 -23 17 -8 36 -14 43 -16 8 -1 39
-15 70 -30 54 -25 78 -35 130 -55 74 -29 138 -57 175 -76 15 -8 27 -11 27 -8
0 3 12 0 28 -8 15 -8 41 -20 57 -27 38 -15 81 -33 120 -50 51 -22 89 -38 115
-48 14 -5 39 -15 55 -22 48 -20 88 -37 120 -50 47 -19 98 -41 118 -51 12 -7
19 -5 23 4 4 11 -77 227 -116 312 -5 11 -23 52 -38 90 -117 286 -191 463 -202
485 -4 9 -26 63 -49 120 -23 58 -50 123 -60 145 -10 22 -53 126 -96 230 -83
206 -80 197 -124 300 -16 39 -91 219 -166 400 -241 581 -227 550 -240 518z
m-211 -778 c-4 -8 -11 -15 -16 -15 -6 0 -5 6 2 15 7 8 14 15 16 15 2 0 1 -7
-2 -15z m36 -15 c0 -5 -2 -10 -4 -10 -3 0 -8 5 -11 10 -3 6 -1 10 4 10 6 0 11
-4 11 -10z m150 6 c0 -3 -4 -8 -10 -11 -5 -3 -10 -1 -10 4 0 6 5 11 10 11 6 0
10 -2 10 -4z m-170 -20 c0 -3 -4 -8 -10 -11 -5 -3 -10 -1 -10 4 0 6 5 11 10
11 6 0 10 -2 10 -4z m300 -136 c0 -5 -5 -10 -11 -10 -5 0 -7 5 -4 10 3 6 8 10
11 10 2 0 4 -4 4 -10z m-458 -138 c-7 -2 -12 -10 -12 -18 0 -8 -6 -17 -14 -20
-8 -3 -13 -16 -12 -30 1 -26 16 -34 16 -9 0 8 9 24 20 35 11 11 20 16 20 11 0
-6 -4 -13 -10 -16 -5 -3 -10 -13 -10 -21 0 -12 4 -12 23 -2 12 7 25 18 30 25
4 7 14 10 21 7 16 -6 29 -44 15 -44 -5 0 -9 6 -9 13 0 7 -3 8 -8 2 -15 -21
-71 -43 -97 -37 -20 3 -26 1 -21 -7 4 -6 12 -9 17 -6 13 9 11 -9 -3 -23 -15
-15 -28 -15 -28 -1 0 5 5 7 10 4 6 -3 10 -2 10 4 0 5 -5 13 -10 16 -21 13 -5
84 26 116 18 19 30 25 33 17 2 -6 -1 -14 -7 -16z m-92 -27 c-7 -13 -18 -21
-26 -18 -8 3 -14 0 -14 -7 0 -10 -3 -10 -15 0 -8 7 -15 22 -15 33 0 20 0 20
15 1 8 -11 15 -14 15 -6 0 6 3 11 8 11 21 -4 32 3 33 19 0 11 2 13 6 4 3 -8 0
-24 -7 -37z m-100 15 c8 13 10 12 10 -1 0 -9 -7 -20 -16 -23 -20 -8 -44 10
-44 32 0 12 4 12 21 -4 17 -16 22 -16 29 -4z m467 -22 c-3 -8 -6 -5 -6 6 -1
11 2 17 5 13 3 -3 4 -12 1 -19z m-344 -35 c-6 -15 -23 -18 -23 -4 0 5 3 17 6
26 5 12 9 14 14 4 5 -7 6 -18 3 -26z m-223 3 c0 -2 -7 -9 -15 -16 -13 -11 -14
-10 -9 4 5 14 24 23 24 12z m139 -14 c7 -7 20 -11 27 -8 8 3 11 0 7 -10 -4
-11 -9 -12 -19 -3 -8 6 -21 9 -29 5 -8 -3 -15 -4 -15 -2 0 3 -3 12 -6 21 -8
19 13 17 35 -3z m-49 -28 c0 -8 -4 -14 -10 -14 -5 0 -6 7 -3 17 4 11 3 14 -5
9 -7 -4 -12 -1 -12 10 0 13 3 14 15 4 8 -7 15 -19 15 -26z m-65 16 c3 -5 1
-10 -4 -10 -6 0 -11 5 -11 10 0 6 2 10 4 10 3 0 8 -4 11 -10z m395 -8 c0 -8
-43 -32 -58 -32 -6 0 49 40 56 40 1 0 2 -4 2 -8z m-73 -33 c2 -16 -1 -19 -9
-11 -5 5 -7 15 -4 21 10 15 12 14 13 -10z m466 -4 c4 -8 2 -17 -3 -20 -6 -4
-10 -4 -10 -1 0 2 -3 11 -6 20 -3 9 -2 16 4 16 5 0 12 -7 15 -15z m-909 -10
c-6 -16 -24 -21 -24 -7 0 11 11 22 21 22 5 0 6 -7 3 -15z m56 11 c0 -11 -19
-15 -25 -6 -3 5 1 10 9 10 9 0 16 -2 16 -4z m190 -6 c0 -5 -2 -10 -4 -10 -3 0
-8 5 -11 10 -3 6 -1 10 4 10 6 0 11 -4 11 -10z m160 6 c0 -3 -4 -8 -10 -11 -5
-3 -10 -1 -10 4 0 6 5 11 10 11 6 0 10 -2 10 -4z m470 -16 c0 -5 -2 -10 -4
-10 -3 0 -8 5 -11 10 -3 6 -1 10 4 10 6 0 11 -4 11 -10z m-770 -32 c-10 -10
-22 -18 -25 -18 -3 0 -5 8 -5 18 0 12 8 18 25 18 24 0 24 0 5 -18z m80 -42 c0
-3 -4 -8 -10 -11 -5 -3 -10 -1 -10 4 0 6 5 11 10 11 6 0 10 -2 10 -4z m-70
-60 c0 -3 -4 -8 -10 -11 -5 -3 -10 -1 -10 4 0 6 5 11 10 11 6 0 10 -2 10 -4z
m23 -11 c-3 -9 -8 -14 -10 -11 -3 3 -2 9 2 15 9 16 15 13 8 -4z m-198 -6 c4
-6 4 -13 0 -17 -4 -4 -10 -1 -12 6 -4 10 -8 10 -19 1 -8 -6 -14 -7 -14 -2 0
23 33 32 45 12z m98 -9 c-3 -11 -7 -20 -9 -20 -2 0 -4 9 -4 20 0 11 4 20 9 20
5 0 7 -9 4 -20z m42 -8 c0 -16 -6 -26 -18 -28 -13 -2 -17 2 -13 13 3 8 6 20 6
27 0 7 6 13 13 13 7 0 13 -11 12 -25z m35 -8 c0 -8 -4 -12 -10 -9 -5 3 -10 10
-10 16 0 5 5 9 10 9 6 0 10 -7 10 -16z m-164 -22 c1 -7 0 -8 -3 -2 -2 5 -9 8
-14 4 -5 -3 -9 0 -9 6 0 15 23 7 26 -8z m48 -1 c3 -5 -1 -11 -9 -15 -9 -3 -15
0 -15 9 0 16 16 20 24 6z m159 -22 c-4 -13 -9 -17 -15 -11 -11 11 -3 32 12 32
4 0 6 -9 3 -21z m-85 -11 c-6 -18 -28 -21 -28 -4 0 9 7 16 16 16 9 0 14 -5 12
-12z m-52 -17 c16 13 17 6 8 -40 -7 -35 -24 -32 -24 5 0 13 -4 24 -10 24 -5 0
-10 8 -10 18 1 16 1 16 11 -1 8 -14 14 -16 25 -6z m76 -3 c-7 -7 -12 -16 -12
-20 0 -13 28 -9 32 4 3 7 12 9 23 4 16 -6 17 -9 5 -16 -8 -5 -18 -6 -22 -4 -5
3 -11 -2 -14 -10 -10 -27 -31 -18 -29 12 2 32 14 56 23 47 3 -3 0 -11 -6 -17z
m-215 -10 c-3 -8 -6 -5 -6 6 -1 11 2 17 5 13 3 -3 4 -12 1 -19z m-38 -19 c-8
-16 -14 -18 -22 -10 -9 9 -8 14 3 21 24 16 31 11 19 -11z m81 3 c0 -4 -9 -13
-20 -20 -18 -11 -19 -10 -8 13 10 21 28 26 28 7z m-65 -31 c-3 -6 -11 -11 -16
-11 -5 0 -4 6 3 14 14 16 24 13 13 -3z m-205 -1 c0 -5 -5 -10 -11 -10 -5 0 -7
5 -4 10 3 6 8 10 11 10 2 0 4 -4 4 -10z m1093 -7 c-3 -7 0 -19 6 -27 6 -7 8
-16 4 -19 -10 -11 -33 14 -33 36 0 19 -1 20 -20 2 -11 -10 -20 -15 -20 -10 0
12 33 33 51 32 10 -1 15 -7 12 -14z m280 -43 c-8 -29 -40 -21 -83 18 -24 22
-29 32 -18 32 9 0 18 -5 20 -12 3 -8 9 -6 19 4 13 14 17 14 41 -3 18 -13 25
-25 21 -39z m-1079 7 c6 -5 2 -6 -10 -2 -14 4 -24 0 -28 -10 -6 -17 -36 -21
-36 -4 0 5 6 7 13 3 6 -4 3 3 -8 15 l-19 22 26 -6 c16 -4 29 -2 34 6 6 10 9
10 12 -1 3 -8 10 -19 16 -23z m1141 24 c3 -5 1 -12 -5 -16 -5 -3 -10 1 -10 9
0 18 6 21 15 7z m282 -98 c-3 -3 -14 5 -24 16 -9 12 -23 21 -30 21 -16 0 -17
24 0 51 11 19 14 17 35 -31 13 -28 22 -54 19 -57z m-1267 66 c0 -11 -4 -17
-10 -14 -5 3 -10 13 -10 21 0 8 5 14 10 14 6 0 10 -9 10 -21z m1040 0 c0 -6
-4 -7 -10 -4 -5 3 -10 11 -10 16 0 6 5 7 10 4 6 -3 10 -11 10 -16z m-1090 2
c0 -5 3 -17 7 -27 4 -11 2 -15 -7 -12 -15 5 -22 48 -8 48 4 0 8 -4 8 -9z
m1222 -13 c-7 -7 -12 -8 -12 -2 0 14 12 26 19 19 2 -3 -1 -11 -7 -17z m-1487
-8 c-3 -5 -10 -10 -16 -10 -5 0 -9 5 -9 10 0 6 7 10 16 10 8 0 12 -4 9 -10z
m243 -17 l20 -28 -29 -2 c-15 -1 -31 2 -34 7 -3 6 1 7 10 4 13 -5 15 -2 9 20
-8 33 0 33 24 -1z m1235 6 c37 -10 112 -69 89 -69 -6 0 -14 5 -17 10 -7 12
-25 4 -25 -11 0 -5 7 -9 15 -9 8 0 20 -9 27 -20 7 -11 19 -20 26 -20 9 0 12
-12 10 -37 -3 -33 -8 -40 -43 -57 -22 -11 -58 -20 -81 -21 -40 -2 -77 14 -72
31 3 14 -14 58 -26 66 -7 5 -3 15 12 31 22 23 31 54 12 42 -13 -8 -13 1 2 42
13 37 16 38 71 22z m-143 -19 c0 -5 -7 -10 -15 -10 -8 0 -15 5 -15 10 0 6 7
10 15 10 8 0 15 -4 15 -10z m33 -20 c3 -11 1 -23 -4 -26 -5 -3 -9 6 -9 20 0
31 6 34 13 6z m-37 -27 c-5 -17 -2 -23 9 -23 13 0 14 -4 5 -20 -15 -28 -36
-25 -48 8 -5 15 -13 35 -17 44 -5 14 -1 17 25 16 28 -1 31 -4 26 -25z m-1282
2 c-4 -8 -8 -15 -10 -15 -2 0 -4 7 -4 15 0 8 4 15 10 15 5 0 7 -7 4 -15z m226
-15 c0 -5 -7 -10 -16 -10 -8 0 -12 5 -9 10 3 6 10 10 16 10 5 0 9 -4 9 -10z
m-180 -10 c0 -5 -9 -10 -20 -10 -11 0 -20 5 -20 10 0 6 9 10 20 10 11 0 20 -4
20 -10z m127 -72 c-3 -7 -5 -2 -5 12 0 14 2 19 5 13 2 -7 2 -19 0 -25z m163
-14 c0 -8 -4 -12 -10 -9 -5 3 -10 13 -10 21 0 8 5 12 10 9 6 -3 10 -13 10 -21z
m-32 -17 c8 -10 6 -13 -9 -13 -19 0 -24 7 -12 19 8 9 9 9 21 -6z m70 -5 c6
-18 -15 -14 -22 4 -4 10 -1 14 6 12 6 -2 14 -10 16 -16z m60 0 c6 -18 -15 -14
-22 4 -4 10 -1 14 6 12 6 -2 14 -10 16 -16z m376 -31 c-7 -8 -30 25 -26 37 3
9 8 6 16 -10 7 -12 11 -25 10 -27z m811 -39 c-5 -13 -9 -11 -20 11 -8 15 -11
35 -8 44 5 12 9 10 20 -12 8 -14 12 -34 8 -43z m-1145 22 c0 -8 -4 -12 -10 -9
-5 3 -10 13 -10 21 0 8 5 12 10 9 6 -3 10 -13 10 -21z m300 -94 c0 -5 -4 -10
-10 -10 -5 0 -10 5 -10 10 0 6 5 10 10 10 6 0 10 -4 10 -10z m167 -93 c-5 -15
-29 -16 -34 -2 -2 6 6 11 18 12 12 1 19 -3 16 -10z m29 -25 c-3 -3 2 -11 12
-18 20 -15 12 -27 -12 -18 -9 3 -16 17 -16 31 0 14 4 22 11 18 6 -4 8 -9 5
-13z"/>
<path d="M8833 6745 c-3 -9 -3 -19 1 -22 3 -4 6 1 6 10 0 10 5 17 10 17 6 0
10 -8 10 -17 0 -15 2 -16 9 -3 6 8 7 18 5 22 -9 14 -34 9 -41 -7z"/>
<path d="M8810 6650 c0 -5 5 -10 10 -10 6 0 10 5 10 10 0 6 -4 10 -10 10 -5 0
-10 -4 -10 -10z"/>
<path d="M10817 8403 c-3 -5 -21 -48 -41 -98 -21 -49 -43 -103 -51 -120 -7
-16 -33 -79 -58 -140 -58 -144 -258 -625 -307 -740 -21 -49 -58 -139 -83 -200
-25 -60 -102 -245 -170 -410 -68 -165 -161 -390 -207 -500 -45 -110 -97 -236
-116 -279 -34 -80 -42 -116 -24 -116 10 0 507 205 1905 785 182 75 393 163
470 195 212 87 217 90 213 103 -3 7 -31 21 -64 33 -154 55 -207 76 -319 134
-60 31 -123 64 -140 75 -126 78 -148 95 -334 250 -109 90 -295 307 -383 445
-59 91 -129 227 -182 352 -25 59 -46 111 -46 114 0 4 -10 33 -21 65 -20 55
-32 69 -42 52z m289 -730 c-4 -4 -11 -1 -16 7 -16 25 -11 35 7 17 9 -9 13 -20
9 -24z m34 -53 c0 -5 -8 -10 -17 -10 -15 0 -16 2 -3 10 19 12 20 12 20 0z m49
-51 c-13 -26 -20 -21 -12 9 3 12 9 19 14 16 5 -3 4 -14 -2 -25z m-79 -9 c0 -5
-7 -10 -16 -10 -8 0 -12 5 -9 10 3 6 10 10 16 10 5 0 9 -4 9 -10z m38 -33 c-1
-12 -6 -28 -11 -34 -10 -14 -31 -7 -22 8 4 5 -8 9 -24 9 -17 0 -31 -5 -31 -11
0 -5 -4 -7 -10 -4 -5 3 -10 11 -10 17 0 6 3 9 6 5 4 -3 13 1 21 9 9 8 21 13
29 10 7 -3 18 2 24 9 16 19 29 10 28 -18z m92 16 c0 -14 -19 -38 -25 -32 -8 8
5 39 16 39 5 0 9 -3 9 -7z m-506 -38 c11 -8 16 -18 12 -22 -4 -4 -10 -2 -14 4
-5 8 -12 8 -26 -2 -17 -13 -17 -14 8 -21 14 -3 26 -14 27 -23 0 -12 2 -11 9 4
7 18 9 18 15 3 4 -10 -1 -24 -14 -37 -26 -26 -27 -41 -2 -41 11 0 22 -8 24
-17 3 -13 5 -11 6 6 1 20 3 22 17 10 13 -10 17 -10 24 0 4 8 16 11 28 7 13 -4
22 -1 26 9 3 8 1 15 -4 15 -6 0 -10 -5 -10 -12 0 -6 -3 -8 -6 -5 -4 4 -2 13 5
21 9 11 9 15 -1 19 -9 3 -7 9 7 21 16 12 17 15 4 16 -20 0 -69 23 -69 33 0 11
28 8 36 -4 3 -6 17 -8 30 -5 14 4 24 2 24 -4 0 -17 28 -11 39 8 6 9 11 12 11
7 0 -6 -4 -15 -9 -20 -8 -9 -15 -53 -12 -80 1 -6 9 -11 20 -11 11 0 17 5 14
13 -3 8 2 13 12 13 12 0 15 -5 11 -17 -6 -16 -6 -16 12 0 10 9 23 17 29 17 6
0 9 9 6 20 -3 11 -12 20 -19 20 -18 0 -18 11 -1 34 13 18 15 17 34 -10 16 -22
19 -34 12 -47 -8 -13 -6 -17 5 -17 8 0 16 6 19 13 3 8 14 3 34 -15 16 -16 34
-28 40 -28 16 0 25 -47 13 -70 -14 -26 -13 -35 4 -21 12 10 13 8 9 -8 -5 -21
-33 -30 -33 -10 0 5 -4 7 -10 4 -16 -10 -12 23 6 50 14 22 14 26 1 39 -13 14
-16 14 -27 1 -7 -8 -13 -33 -14 -55 -1 -45 -21 -49 -21 -4 0 39 -14 62 -26 43
-5 -8 -6 -21 -4 -29 2 -8 0 -22 -5 -30 -5 -8 -10 -11 -10 -6 0 6 -6 1 -14 -9
-9 -12 -12 -32 -9 -53 5 -28 2 -34 -16 -39 -11 -3 -21 -10 -21 -16 0 -8 -4 -7
-12 1 -8 8 -8 15 1 26 9 11 9 15 -1 19 -10 4 -10 8 2 16 8 6 10 11 4 11 -7 0
-9 11 -6 25 2 15 0 25 -7 25 -7 0 -11 -24 -10 -72 1 -40 1 -76 0 -80 -2 -13
-51 35 -51 49 0 14 -16 18 -22 5 -1 -5 -16 -12 -33 -15 l-30 -7 30 17 c35 19
21 29 -19 13 -17 -6 -26 -16 -24 -26 2 -9 -5 -21 -16 -28 -10 -6 -32 -24 -49
-40 -29 -26 -32 -27 -37 -10 -3 11 -10 20 -15 21 -16 2 -12 -41 4 -61 8 -9 11
-19 8 -23 -4 -3 -9 2 -13 11 -4 12 -13 3 -32 -34 -14 -28 -30 -50 -35 -50 -5
0 -6 7 -3 16 3 9 6 22 6 30 0 9 4 13 9 10 5 -3 12 1 15 10 3 9 2 12 -4 9 -6
-4 -2 10 7 31 13 26 15 38 7 41 -19 6 30 89 49 85 13 -2 15 2 8 20 -10 28 -31
36 -31 11 0 -14 -2 -15 -9 -4 -11 17 -23 -1 -15 -23 3 -9 -3 -31 -13 -49 -11
-18 -23 -45 -27 -60 -3 -15 -11 -27 -16 -27 -13 0 -13 13 1 27 9 9 7 11 -7 9
-10 -2 -20 -8 -22 -14 -2 -7 -8 -9 -14 -6 -12 8 -39 -27 -33 -43 2 -7 -4 -17
-14 -23 -16 -8 -20 -5 -23 14 -5 26 9 49 32 54 8 2 22 10 30 18 12 12 12 14
-5 14 -12 0 -16 3 -9 8 12 8 26 42 18 42 -3 0 -12 -7 -20 -15 -9 -8 -20 -15
-25 -15 -5 0 -9 7 -9 15 0 16 -12 20 -24 8 -15 -15 -36 -10 -36 8 0 10 5 19
10 19 6 0 10 7 10 15 0 14 -3 13 -25 -1 -14 -9 -25 -15 -25 -13 0 2 13 30 29
61 32 63 61 108 61 93 0 -6 -7 -19 -15 -29 -8 -11 -15 -33 -15 -49 0 -25 2
-28 15 -17 8 7 15 23 15 36 0 12 5 26 10 29 6 3 10 -4 10 -17 0 -17 3 -19 9
-9 10 15 6 79 -5 90 -4 3 -9 0 -11 -6 -5 -14 -33 -18 -33 -5 0 15 22 30 36 25
8 -3 14 0 14 6 0 6 9 11 20 11 13 0 18 -5 14 -15 -4 -8 -1 -15 5 -15 6 0 11
-17 11 -39 0 -32 3 -39 18 -36 9 2 21 4 25 4 4 1 17 16 28 35 11 19 31 37 44
40 26 7 33 34 14 53 -6 6 -14 27 -19 46 -6 28 -5 34 6 30 8 -3 14 0 14 6 0 15
11 13 34 -4z m246 -15 c-6 -12 -14 -20 -17 -17 -2 3 1 14 8 26 7 11 15 18 17
16 2 -2 -2 -13 -8 -25z m-317 -35 c3 -17 2 -24 0 -17 -3 7 -9 10 -14 7 -5 -4
-9 1 -9 11 0 14 -2 15 -17 3 -14 -12 -15 -12 -10 1 4 8 10 23 13 33 6 16 9 16
20 5 8 -7 15 -27 17 -43z m-84 2 c0 -21 -1 -21 -9 -2 -12 28 -12 37 0 30 6 -3
10 -16 9 -28z m604 9 c9 -7 17 -21 17 -32 0 -14 3 -15 12 -6 18 18 27 14 22
-10 -2 -13 -2 -17 2 -10 13 26 26 11 20 -23 -7 -33 6 -50 17 -22 3 7 6 5 6 -5
1 -10 -3 -18 -8 -18 -5 0 -17 -3 -25 -6 -12 -5 -15 -2 -10 10 6 17 -5 21 -21
9 -6 -5 -7 -4 -3 1 3 5 4 15 1 22 -4 12 -8 12 -21 2 -13 -11 -14 -10 -8 15 4
17 2 27 -5 27 -6 0 -9 9 -6 20 4 15 0 20 -14 20 -10 0 -19 5 -19 10 0 14 22
12 43 -4z m-363 -16 c0 -4 -7 -10 -15 -14 -8 -3 -15 -4 -15 -2 0 3 -3 11 -6
19 -4 12 0 14 15 10 12 -3 21 -9 21 -13z m319 -14 c0 -7 -2 -6 -6 2 -2 6 -8
10 -12 8 -4 -3 -8 1 -8 9 0 11 4 12 14 4 7 -6 13 -17 12 -23z m-525 -62 c3 -8
10 -12 16 -9 19 12 10 -12 -11 -31 -22 -19 -22 -19 -15 9 5 20 3 27 -9 27 -8
0 -15 5 -15 10 0 16 27 12 34 -6z m696 2 c0 -3 -4 -8 -10 -11 -5 -3 -10 -1
-10 4 0 6 5 11 10 11 6 0 10 -2 10 -4z m-190 -61 c-7 -9 -15 -13 -18 -10 -3 2
1 11 8 20 7 9 15 13 18 10 3 -2 -1 -11 -8 -20z m167 -23 c-9 -12 -12 -11 -18
5 -3 10 -1 21 5 25 16 10 27 -14 13 -30z m-216 -46 c-6 -7 -8 -16 -4 -19 3 -4
1 -7 -6 -7 -8 0 -11 6 -7 16 3 9 6 20 6 25 0 6 5 7 10 4 8 -5 8 -11 1 -19z
m120 1 c-10 -9 -11 -8 -5 6 3 10 9 15 12 12 3 -3 0 -11 -7 -18z m-75 -14 c-10
-10 -19 5 -10 18 6 11 8 11 12 0 2 -7 1 -15 -2 -18z m52 -31 c0 -18 -7 -33
-19 -40 -21 -14 -23 -10 -10 16 5 9 12 25 15 35 8 25 13 21 14 -11z m-48 7 c0
-5 5 -7 10 -4 13 8 13 -1 0 -26 -6 -10 -24 -26 -40 -34 -29 -15 -30 -15 -30 5
0 11 -2 20 -4 20 -14 0 -36 -14 -36 -22 0 -6 7 -8 15 -4 17 6 19 -2 6 -23 -7
-11 -11 -10 -20 7 -14 27 -14 42 2 42 6 1 26 12 42 25 32 26 55 32 55 14z
m-139 -62 c-10 -9 -11 -8 -5 6 3 10 9 15 12 12 3 -3 0 -11 -7 -18z m-121 -11
c0 -3 -4 -8 -10 -11 -5 -3 -10 -1 -10 4 0 6 5 11 10 11 6 0 10 -2 10 -4z
m-387 -12 c-7 -3 -10 -11 -7 -18 3 -8 -2 -16 -10 -19 -19 -8 -21 -38 -3 -56
10 -12 9 -13 -7 -7 -12 4 -23 1 -28 -6 -4 -8 -8 4 -8 30 0 36 4 45 20 49 11 3
20 12 20 19 0 8 8 14 18 13 9 0 12 -3 5 -5z m527 -9 c-7 -9 -15 -13 -17 -11
-7 7 7 26 19 26 6 0 6 -6 -2 -15z m-118 -17 c-7 -7 -12 -8 -12 -2 0 14 12 26
19 19 2 -3 -1 -11 -7 -17z m58 6 c0 -10 -28 -34 -39 -34 -16 0 -13 11 7 26 18
14 32 18 32 8z m-125 -14 c3 -5 4 -10 1 -10 -2 0 -12 -3 -20 -6 -12 -5 -15 -2
-10 10 7 18 20 21 29 6z m75 -44 c10 -16 10 -18 -5 -12 -13 5 -16 2 -11 -9 3
-9 -1 -18 -9 -21 -8 -4 -15 -13 -15 -20 0 -8 -7 -17 -15 -20 -8 -4 -15 -10
-15 -16 0 -5 6 -6 13 -2 7 5 5 -2 -4 -16 -17 -25 -59 -40 -59 -21 0 6 5 10 12
9 6 -2 14 6 16 17 2 11 11 27 18 36 13 14 13 17 0 22 -9 4 -15 3 -13 -1 1 -4
-6 -17 -15 -30 -11 -17 -17 -20 -21 -10 -3 7 -6 3 -6 -9 -1 -12 -5 -24 -10
-28 -6 -3 -9 7 -8 22 1 18 -3 27 -10 26 -7 -2 -13 2 -13 7 0 6 -7 10 -15 10
-9 0 -12 6 -9 15 4 8 13 15 22 15 9 0 26 10 39 22 13 12 23 16 23 10 0 -7 7
-12 16 -12 8 0 13 4 10 8 -3 5 1 18 9 29 13 18 18 20 39 10 13 -6 29 -20 36
-31z m67 11 c-13 -29 -47 -37 -47 -11 0 8 4 13 8 10 5 -3 16 4 26 15 23 27 29
20 13 -14z m-583 8 c-4 -8 -8 -15 -10 -15 -2 0 -4 7 -4 15 0 8 4 15 10 15 5 0
7 -7 4 -15z m106 11 c0 -3 -4 -8 -10 -11 -5 -3 -10 -1 -10 4 0 6 5 11 10 11 6
0 10 -2 10 -4z m495 -55 c3 -5 1 -12 -5 -16 -5 -3 -10 1 -10 9 0 18 6 21 15 7z
m65 -10 c-10 -20 -30 -37 -30 -27 0 6 33 46 38 46 1 0 -2 -9 -8 -19z m-357
-21 c-3 -11 -9 -17 -15 -14 -5 3 -4 12 3 20 16 19 18 18 12 -6z m254 3 c3 -7
-4 -9 -16 -6 -12 3 -18 9 -15 15 7 11 26 6 31 -9z m-528 -63 c5 0 16 10 24 23
l16 22 -6 -22 c-6 -27 17 -32 37 -8 7 9 19 14 27 11 7 -3 13 -1 13 4 0 6 5 10
10 10 6 0 10 -11 10 -25 0 -14 -4 -25 -9 -25 -6 0 -29 -25 -53 -55 -37 -47
-44 -53 -58 -40 -13 11 -18 11 -34 0 -11 -8 -15 -19 -10 -26 5 -9 10 -5 17 12
5 13 11 19 13 13 3 -6 -2 -24 -11 -40 -13 -26 -13 -30 0 -40 13 -10 14 -12 1
-17 -18 -7 -27 14 -19 44 4 15 3 20 -5 15 -7 -4 -13 0 -14 11 -5 54 -2 69 17
78 25 13 34 48 10 39 -13 -5 -15 -2 -9 22 7 28 7 28 -10 11 -19 -19 -43 -17
-38 2 4 21 -15 2 -21 -19 -4 -16 0 -20 20 -20 21 0 23 -3 17 -22 -3 -13 -12
-30 -19 -38 -8 -8 -17 -28 -21 -45 -6 -26 -8 -27 -15 -10 -4 11 -5 31 -1 45 5
22 4 24 -11 11 -9 -7 -15 -17 -12 -21 7 -11 -25 -43 -34 -34 -3 4 -1 9 5 11 7
2 10 13 7 23 -3 11 -1 20 4 20 5 0 14 20 22 44 14 47 71 114 71 83 0 -22 6
-21 33 6 l22 22 3 -37 c2 -21 7 -38 11 -38z m641 40 c0 -5 -5 -10 -11 -10 -5
0 -7 5 -4 10 3 6 8 10 11 10 2 0 4 -4 4 -10z m246 -5 c-11 -8 -22 -12 -25 -9
-6 6 19 24 34 24 6 -1 1 -7 -9 -15z m-216 -5 c0 -5 -4 -10 -10 -10 -5 0 -10 5
-10 10 0 6 5 10 10 10 6 0 10 -4 10 -10z m-170 -4 c0 -2 -8 -10 -17 -17 -16
-13 -17 -12 -4 4 13 16 21 21 21 13z m40 0 c0 -2 -7 -7 -16 -10 -8 -3 -12 -2
-9 4 6 10 25 14 25 6z m288 -27 c3 -12 2 -12 -6 0 -6 8 -15 10 -22 6 -9 -5
-11 -4 -6 4 10 15 28 10 34 -10z m-697 -36 c-24 -24 -29 -27 -28 -11 1 10 9
21 19 24 10 3 18 13 18 22 0 11 3 13 11 5 7 -7 1 -19 -20 -40z m393 16 c-10
-12 -17 -31 -16 -42 3 -18 2 -19 -11 -8 -13 10 -15 9 -10 -9 4 -16 2 -19 -11
-14 -20 8 -21 28 -1 48 8 8 15 18 15 23 0 9 42 31 49 26 2 -2 -4 -12 -15 -24z
m-324 1 c0 -6 -7 -13 -16 -17 -8 -3 -13 -11 -11 -17 3 -7 -3 -12 -13 -12 -19
0 -17 10 9 38 18 19 31 23 31 8z m260 -10 c0 -5 -5 -10 -11 -10 -5 0 -7 5 -4
10 3 6 8 10 11 10 2 0 4 -4 4 -10z m262 -12 c-7 -7 -12 -8 -12 -2 0 14 12 26
19 19 2 -3 -1 -11 -7 -17z m-307 -30 c-2 -18 -4 -35 -5 -38 -1 -3 -2 -9 -1
-14 1 -4 -3 -14 -10 -22 -17 -20 -4 -43 20 -37 13 3 21 1 21 -7 0 -7 -7 -10
-15 -6 -9 3 -15 0 -15 -10 0 -8 5 -12 10 -9 6 3 10 2 10 -3 0 -6 -7 -13 -15
-16 -11 -4 -17 3 -22 24 -6 33 -15 37 -36 15 -13 -13 -16 -13 -21 1 -10 26 -7
32 17 36 15 2 22 10 23 28 1 13 7 26 13 28 6 2 11 14 11 26 0 19 7 36 15 36 2
0 1 -15 0 -32z m392 -10 c-3 -8 -6 -5 -6 6 -1 11 2 17 5 13 3 -3 4 -12 1 -19z
m-74 -36 c-7 -2 -13 -8 -13 -13 0 -5 -4 -9 -9 -9 -12 0 -8 20 9 48 l15 22 6
-22 c3 -15 0 -24 -8 -26z m-633 6 c0 -5 -4 -8 -10 -8 -5 0 -10 10 -10 23 0 18
2 19 10 7 5 -8 10 -18 10 -22z m97 10 c-3 -8 -6 -5 -6 6 -1 11 2 17 5 13 3 -3
4 -12 1 -19z m53 -9 c-5 -16 -6 -37 -3 -45 7 -19 -5 -18 -24 2 -10 10 -12 18
-6 22 5 4 15 17 22 30 16 31 21 28 11 -9z m191 -22 c-13 -13 -15 1 -4 30 7 17
8 17 11 -1 2 -10 -1 -23 -7 -29z m-505 2 c14 -29 14 -33 0 -47 -17 -18 -17
-18 -20 51 -2 34 0 34 20 -4z m584 11 c0 -5 -5 -10 -11 -10 -5 0 -7 5 -4 10 3
6 8 10 11 10 2 0 4 -4 4 -10z m-404 -28 c-10 -12 -14 -26 -10 -37 5 -13 3 -16
-7 -13 -8 3 -12 14 -11 24 4 22 33 57 40 49 3 -3 -2 -13 -12 -23z m929 18 c-3
-5 -11 -10 -16 -10 -6 0 -7 5 -4 10 3 6 11 10 16 10 6 0 7 -4 4 -10z m-829
-38 c8 -12 11 -22 5 -22 -5 0 -11 6 -14 13 -3 9 -9 7 -24 -5 -22 -20 -53 -24
-53 -7 0 5 4 7 10 4 5 -3 15 5 21 18 13 30 34 29 55 -1z m774 20 c0 -8 -35
-31 -47 -32 -7 0 -13 5 -13 10 0 6 7 10 15 10 8 0 15 4 15 8 0 5 7 9 15 9 8 0
15 -2 15 -5z m-665 -64 c3 -7 0 -4 -9 7 -8 11 -20 25 -25 32 -7 8 -7 13 2 16
7 2 15 -6 18 -19 4 -12 10 -28 14 -36z m375 53 c0 -6 -4 -13 -10 -16 -5 -3
-10 1 -10 9 0 9 5 16 10 16 6 0 10 -4 10 -9z m-671 -43 c0 -31 -1 -31 -10 -10
-5 13 -7 28 -3 33 10 16 14 9 13 -23z m448 18 c-3 -7 0 -19 6 -25 8 -8 5 -11
-11 -11 -12 0 -22 4 -22 9 0 18 12 41 22 41 6 0 8 -6 5 -14z m154 0 c-6 -7 -9
-22 -5 -32 3 -11 -1 -8 -9 6 -17 28 -14 40 10 40 12 0 13 -3 4 -14z m30 -19
c-10 -9 -11 -8 -5 6 3 10 9 15 12 12 3 -3 0 -11 -7 -18z m241 1 c-3 -11 -13
-29 -24 -40 -28 -28 -24 8 5 38 27 29 26 29 19 2z m-309 -5 c-7 -3 -13 -14
-14 -26 -1 -20 -2 -20 -8 3 -7 25 -8 24 -15 -7 -9 -38 -21 -42 -36 -13 -10 18
-7 24 13 21 4 0 7 5 7 13 0 10 11 14 33 14 17 -1 26 -3 20 -5z m-93 -43 c0 -5
-2 -10 -4 -10 -3 0 -8 5 -11 10 -3 6 -1 10 4 10 6 0 11 -4 11 -10z m-50 -25
c-7 -9 -15 -13 -18 -10 -3 2 1 11 8 20 7 9 15 13 18 10 3 -2 -1 -11 -8 -20z
m-79 -358 c-10 -9 -11 -8 -5 6 3 10 9 15 12 12 3 -3 0 -11 -7 -18z m-565 -164
c-7 -7 -26 7 -26 19 0 6 6 6 15 -2 9 -7 13 -15 11 -17z m39 -12 c3 -5 1 -12
-5 -16 -5 -3 -10 1 -10 9 0 18 6 21 15 7z"/>
<path d="M11085 7400 c-3 -5 -1 -10 4 -10 6 0 11 5 11 10 0 6 -2 10 -4 10 -3
0 -8 -4 -11 -10z"/>
<path d="M11000 7380 c0 -5 4 -10 9 -10 6 0 13 5 16 10 3 6 -1 10 -9 10 -9 0
-16 -4 -16 -10z"/>
<path d="M11070 7371 c0 -6 4 -13 10 -16 6 -3 7 1 4 9 -7 18 -14 21 -14 7z"/>
<path d="M10923 7351 c1 -15 4 -17 14 -9 17 14 16 28 -1 28 -8 0 -14 -9 -13
-19z"/>
<path d="M10961 7334 c0 -11 3 -14 6 -6 3 7 2 16 -1 19 -3 4 -6 -2 -5 -13z"/>
<path d="M10682 7315 c0 -16 2 -22 5 -12 2 9 2 23 0 30 -3 6 -5 -1 -5 -18z"/>
<path d="M10790 7315 c-1 -16 -3 -43 -5 -60 -4 -29 -4 -29 10 5 7 19 14 28 14
20 2 -24 21 10 20 35 l0 20 -9 -20 c-8 -19 -8 -19 -18 5 l-11 25 -1 -30z"/>
<path d="M10710 7319 c0 -5 5 -7 10 -4 6 3 10 8 10 11 0 2 -4 4 -10 4 -5 0
-10 -5 -10 -11z"/>
<path d="M10757 7303 c-10 -9 -8 -33 2 -33 5 0 11 9 14 20 5 20 -3 26 -16 13z"/>
<path d="M10647 7284 c-14 -14 -7 -30 13 -30 13 0 20 6 18 15 -3 16 -21 25
-31 15z"/>
<path d="M10590 7257 c-34 -15 -33 -14 -25 -27 6 -9 10 -9 17 1 7 10 8 5 3
-14 l-6 -29 25 19 c24 17 34 47 19 56 -5 3 -19 0 -33 -6z"/>
<path d="M10980 7234 c0 -8 5 -12 10 -9 6 4 8 11 5 16 -9 14 -15 11 -15 -7z"/>
<path d="M10490 7221 c0 -6 -8 -8 -17 -5 -13 4 -14 3 -5 -3 7 -6 10 -17 6 -28
-7 -17 -6 -17 20 0 15 10 25 23 23 28 -5 15 -27 21 -27 8z"/>
<path d="M10710 7171 c0 -5 7 -12 16 -15 14 -5 15 -4 4 9 -14 17 -20 19 -20 6z"/>
<path d="M10569 7133 c-13 -16 -12 -17 4 -4 9 7 17 15 17 17 0 8 -8 3 -21 -13z"/>
<path d="M10703 7132 c1 -14 5 -18 11 -12 7 7 6 14 -1 21 -9 9 -12 7 -10 -9z"/>
<path d="M10750 7010 c0 -5 4 -10 9 -10 6 0 13 5 16 10 3 6 -1 10 -9 10 -9 0
-16 -4 -16 -10z"/>
<path d="M10460 6869 c0 -5 5 -7 10 -4 6 3 10 8 10 11 0 2 -4 4 -10 4 -5 0
-10 -5 -10 -11z"/>
<path d="M8650 8324 c0 -4 7 -12 15 -18 9 -6 17 -25 19 -43 6 -41 23 -73 55
-100 29 -25 45 -29 38 -10 -2 6 2 19 9 28 10 11 12 27 7 55 -7 35 -14 42 -63
66 -55 27 -80 34 -80 22z m140 -116 c0 -10 -38 -20 -50 -13 -19 12 -10 20 20
20 17 0 30 -3 30 -7z"/>
<path d="M8805 8260 c-3 -5 1 -10 10 -10 9 0 13 5 10 10 -3 6 -8 10 -10 10 -2
0 -7 -4 -10 -10z"/>
<path d="M9036 8191 c-3 -4 6 -13 20 -20 17 -7 24 -17 20 -26 -3 -8 -2 -15 3
-15 16 0 20 13 10 31 -12 23 -46 42 -53 30z"/>
<path d="M8760 8126 c0 -4 11 -32 25 -62 14 -30 25 -58 25 -62 0 -4 10 -8 21
-9 l22 -2 -22 16 c-15 10 -21 22 -18 34 3 10 -4 31 -16 46 -30 40 -37 48 -37
39z"/>
<path d="M9086 8113 c5 -5 12 -12 16 -18 4 -6 8 -2 8 8 0 9 -7 17 -17 17 -9 0
-12 -3 -7 -7z"/>
<path d="M8850 8060 c-8 -5 -10 -10 -5 -10 6 0 17 5 25 10 8 5 11 10 5 10 -5
0 -17 -5 -25 -10z"/>
<path d="M9280 8020 c0 -5 5 -10 11 -10 5 0 7 5 4 10 -3 6 -8 10 -11 10 -2 0
-4 -4 -4 -10z"/>
<path d="M8850 7920 c0 -5 5 -10 10 -10 6 0 10 5 10 10 0 6 -4 10 -10 10 -5 0
-10 -4 -10 -10z"/>
<path d="M9105 7770 c-8 -13 5 -13 25 0 13 8 13 10 -2 10 -9 0 -20 -4 -23 -10z"/>
<path d="M7708 6255 c9 -13 20 -21 24 -18 4 2 5 -2 2 -10 -3 -8 2 -20 11 -27
8 -7 15 -20 15 -30 0 -24 26 -44 47 -35 16 6 16 8 -4 16 -13 4 -23 15 -23 24
0 8 -5 15 -11 15 -5 0 -7 5 -4 10 3 6 1 10 -4 10 -6 0 -11 8 -11 18 1 13 5 11
21 -10 24 -33 35 -35 42 -9 4 16 -15 37 -26 28 -2 -1 -14 5 -27 14 -14 9 -35
18 -47 21 -22 6 -22 5 -5 -17z"/>
<path d="M7836 6205 c4 -16 11 -33 16 -36 13 -8 -1 -56 -18 -63 -11 -4 -13
-24 -9 -95 2 -50 0 -93 -5 -96 -5 -3 -8 7 -7 21 1 15 -3 29 -9 31 -7 2 -11 -8
-10 -27 1 -16 4 -30 9 -30 12 0 8 -35 -5 -49 -11 -10 -8 -11 15 -6 26 7 39 -7
18 -19 -4 -3 -6 -17 -3 -31 2 -14 1 -25 -4 -24 -21 4 -44 -2 -44 -11 0 -5 6
-7 14 -4 10 4 13 -6 12 -44 0 -28 -4 -48 -8 -46 -4 2 -9 0 -13 -6 -4 -6 -11
-8 -16 -5 -5 4 -9 -1 -9 -9 0 -8 8 -20 18 -26 13 -8 14 -13 4 -17 -10 -4 -9
-8 5 -19 22 -16 1 -19 -28 -4 -19 11 -28 -3 -9 -15 5 -3 7 -12 4 -19 -3 -8 -1
-17 5 -21 13 -7 15 -35 3 -35 -5 0 -15 11 -22 25 -7 14 -15 23 -18 20 -3 -2 1
-11 8 -20 8 -10 9 -15 1 -15 -6 0 -11 -8 -10 -17 0 -11 3 -13 6 -5 11 28 23 9
23 -39 0 -31 -4 -48 -10 -44 -5 3 -10 2 -10 -3 0 -13 75 -42 108 -42 15 0 44
-3 65 -6 30 -5 37 -3 37 10 0 9 -3 15 -7 15 -44 -7 -42 14 4 42 27 17 53 24
90 24 51 0 53 -1 53 -27 0 -18 -5 -28 -15 -28 -8 0 -15 -4 -15 -10 0 -5 -12
-12 -27 -16 -50 -11 -118 -37 -135 -52 -13 -11 -18 -11 -18 -3 0 7 -4 10 -9 7
-4 -3 -6 -17 -3 -31 2 -15 -2 -33 -11 -43 -8 -9 -18 -29 -22 -44 -4 -15 -14
-33 -23 -40 -13 -11 -15 -10 -9 5 5 14 -1 21 -29 33 -26 11 -34 18 -26 26 6 6
18 8 26 5 22 -9 26 -8 24 1 -2 4 -6 6 -10 5 -4 -2 -3 8 2 22 6 15 6 26 0 30
-6 4 -10 0 -10 -7 0 -7 -5 -20 -10 -28 -9 -13 -11 -13 -19 0 -13 20 -22 8 -23
-29 -1 -19 7 -40 20 -54 24 -25 28 -37 13 -37 -5 0 -12 8 -14 18 -3 9 -5 0 -6
-20 0 -21 -5 -38 -10 -38 -5 0 -18 -15 -30 -32 l-21 -33 0 27 c0 15 5 30 10
33 18 11 10 25 -15 25 -14 0 -25 -4 -25 -10 0 -5 -3 -9 -7 -9 -21 3 -32 -3
-36 -18 -4 -17 -5 -17 -6 -1 -1 11 -6 15 -16 12 -10 -4 -15 0 -15 12 0 16 -2
17 -10 4 -6 -10 -10 -11 -10 -2 0 6 -5 12 -11 12 -6 0 -9 -8 -7 -17 2 -10 11
-18 20 -18 9 0 20 -4 24 -8 4 -4 -2 -7 -14 -7 -12 0 -22 -4 -22 -10 0 -5 10
-10 21 -10 19 0 20 -2 8 -16 -11 -14 -10 -19 11 -34 22 -17 26 -17 59 -1 20 9
38 19 39 24 2 4 10 7 18 7 8 0 14 5 14 10 0 6 9 10 20 10 10 0 24 8 29 18 8
13 13 14 19 4 9 -14 49 -1 116 39 38 22 44 39 7 19 -16 -8 -21 -8 -22 2 0 7
-4 4 -9 -7 -7 -17 -9 -15 -9 11 -1 34 37 134 50 134 8 0 12 -13 24 -73 2 -9
-1 -15 -6 -11 -15 9 -10 -16 6 -33 10 -9 22 -12 33 -8 9 4 24 9 32 10 32 4 90
27 90 36 0 5 6 9 14 9 8 0 16 7 20 15 4 11 -2 15 -20 15 -18 0 -24 4 -21 13 3
8 -5 27 -19 43 -26 33 -30 56 -11 73 17 13 37 -4 37 -32 0 -10 4 -16 9 -13 5
3 11 -1 15 -9 3 -8 0 -15 -6 -15 -7 0 -6 -5 2 -15 11 -13 15 -13 21 -3 7 10 9
10 9 1 0 -7 7 -13 15 -13 9 0 18 -7 21 -15 8 -20 18 -19 78 9 28 13 60 27 71
30 29 10 -2 26 -37 19 -24 -5 -28 -2 -28 16 0 11 -4 21 -9 21 -5 0 -8 8 -7 18
0 9 -5 16 -11 15 -7 -2 -12 0 -12 5 3 20 -2 33 -13 29 -13 -4 -58 53 -58 72 0
6 -4 11 -10 11 -5 0 -10 6 -10 13 0 8 -8 22 -19 31 -24 22 -34 72 -19 99 15
29 34 47 42 40 3 -4 6 -4 6 0 0 3 -7 12 -15 21 -8 8 -12 21 -9 29 8 21 44 9
44 -14 0 -16 4 -17 26 -9 39 15 72 2 85 -34 7 -20 18 -32 30 -32 23 0 23 1 3
31 -10 15 -12 25 -5 25 6 0 11 -4 11 -9 0 -5 9 -11 20 -14 19 -5 20 -1 18 43
-2 32 -7 46 -15 43 -9 -3 -11 6 -8 34 2 21 4 41 4 44 1 3 10 15 21 27 11 12
17 28 14 37 -6 14 -8 14 -19 -2 -12 -16 -13 -14 -8 12 3 21 2 26 -5 16 -7 -9
-12 -10 -16 -2 -11 17 4 53 20 47 18 -7 25 6 14 24 -7 12 -12 12 -22 2 -21
-21 -57 -15 -63 11 -4 13 -5 27 -4 33 4 22 -3 31 -33 42 -18 6 -36 10 -39 9
-3 -1 -13 4 -21 11 -13 10 -18 8 -32 -13 -9 -14 -12 -25 -6 -25 16 0 12 -26
-7 -47 -10 -10 -15 -14 -11 -8 10 15 0 25 -24 25 -10 0 -18 5 -18 12 0 7 -5 6
-12 -4 -18 -21 -58 -30 -58 -12 0 8 -6 11 -15 8 -9 -4 -15 0 -15 10 0 13 5 14
26 6 32 -12 34 -12 34 1 0 5 -4 7 -10 4 -5 -3 -10 -1 -10 4 0 6 5 11 10 11 6
0 10 7 10 15 0 12 -4 13 -18 4 -26 -16 -77 2 -78 27 -1 10 -2 25 -3 32 -1 7
-5 11 -9 8 -5 -3 -16 11 -26 31 -9 19 -20 33 -23 29 -3 -3 -12 2 -20 12 -12
15 -13 14 -7 -13z m24 -142 c0 -8 -5 -13 -12 -11 -18 6 -21 25 -3 25 8 0 15
-7 15 -14z m324 -8 c2 -7 -1 -16 -9 -18 -17 -7 -25 1 -25 24 0 21 25 16 34 -6z
m-324 -245 c0 -5 -5 -10 -11 -10 -5 0 -7 5 -4 10 3 6 8 10 11 10 2 0 4 -4 4
-10z m357 -62 c-3 -8 -6 -5 -6 6 -1 11 2 17 5 13 3 -3 4 -12 1 -19z m-442
-198 c3 -5 1 -10 -4 -10 -6 0 -11 5 -11 10 0 6 2 10 4 10 3 0 8 -4 11 -10z
m338 -125 c-7 -21 -13 -19 -13 6 0 11 4 18 10 14 5 -3 7 -12 3 -20z m87 -95
c0 -5 -5 -10 -11 -10 -5 0 -7 5 -4 10 3 6 8 10 11 10 2 0 4 -4 4 -10z m35 -29
c3 -5 1 -12 -5 -16 -5 -3 -10 1 -10 9 0 18 6 21 15 7z"/>
<path d="M7800 6104 c0 -8 5 -12 10 -9 6 3 10 10 10 16 0 5 -4 9 -10 9 -5 0
-10 -7 -10 -16z"/>
<path d="M7787 6014 c-8 -8 1 -24 14 -24 5 0 9 7 9 15 0 15 -12 20 -23 9z"/>
<path d="M8474 5880 c1 -30 8 -68 14 -83 17 -40 15 -42 -13 -10 -19 22 -24 24
-25 11 0 -19 85 -106 144 -148 20 -14 50 -45 68 -70 21 -31 25 -39 10 -26 -12
11 -22 15 -22 10 -1 -5 -9 7 -20 26 -11 19 -19 31 -20 25 0 -5 -4 -4 -9 4 -17
27 -29 0 -25 -57 l3 -57 -19 25 c-10 14 -22 22 -25 18 -9 -9 13 -150 26 -163
6 -6 21 -4 42 7 17 8 68 30 112 48 44 17 84 36 90 41 6 6 -1 18 -20 34 l-30
23 24 23 c19 17 23 19 18 6 -3 -9 -2 -17 3 -17 4 0 11 -13 15 -30 4 -16 11
-30 16 -30 14 0 253 100 263 111 6 5 18 9 27 9 9 0 22 6 29 14 6 8 17 13 25
10 7 -3 16 0 20 5 3 6 12 9 18 5 7 -3 3 2 -7 10 -16 13 -22 13 -35 3 -8 -6
-12 -7 -8 -1 5 8 -52 52 -60 46 -2 0 -22 8 -45 18 -24 11 -50 20 -58 20 -9 0
-26 7 -38 16 -12 8 -22 12 -22 9 0 -3 -10 0 -22 7 -31 17 -42 16 -50 -2 -5
-11 -7 -8 -7 9 -1 13 -4 21 -7 18 -4 -4 -20 3 -35 14 -16 11 -39 22 -51 24
-21 4 -22 3 -5 -9 17 -13 24 -36 10 -36 -3 0 -14 7 -23 15 -15 14 -18 14 -23
1 -4 -11 -1 -13 10 -9 12 5 15 2 11 -9 -4 -9 -1 -21 5 -27 6 -6 7 -11 1 -11
-5 0 -18 10 -29 22 -20 24 -33 11 -19 -20 4 -9 6 -21 5 -25 -1 -5 3 -6 9 -2
11 7 26 -22 16 -32 -3 -3 -12 0 -20 6 -11 10 -15 9 -18 -3 -3 -14 -6 -14 -32
-1 -35 19 -36 19 -36 -2 0 -14 -3 -13 -23 5 -14 13 -32 20 -44 18 -14 -3 -20
0 -18 7 3 7 0 19 -5 27 -9 13 -11 13 -21 0 -8 -12 -9 -11 -5 5 3 11 -1 33 -9
49 -8 15 -15 45 -15 65 0 20 -5 43 -10 51 -6 10 -8 -2 -6 -40z m365 -113 c0
-21 -1 -21 -9 -2 -12 28 -12 37 0 30 6 -3 10 -16 9 -28z m96 -46 c3 -5 1 -12
-5 -16 -5 -3 -10 1 -10 9 0 18 6 21 15 7z"/>
<path d="M8705 5850 c3 -5 13 -10 21 -10 8 0 12 5 9 10 -3 6 -13 10 -21 10 -8
0 -12 -4 -9 -10z"/>
<path d="M7761 5787 c-13 -21 -12 -21 5 -5 10 10 16 20 13 22 -3 3 -11 -5 -18
-17z"/>
<path d="M8391 5748 c-1 -10 -7 -15 -15 -12 -8 3 -16 -3 -19 -15 -3 -12 -1
-21 4 -21 6 0 5 -8 -1 -19 -13 -25 -13 -51 0 -51 6 0 13 14 17 31 4 22 10 28
21 24 8 -3 19 0 24 7 11 18 10 28 -4 26 -6 -2 -15 8 -19 22 -4 16 -7 19 -8 8z"/>
<path d="M7700 5694 c0 -3 7 -12 15 -20 21 -21 19 -32 -7 -36 -19 -3 -20 -4
-5 -16 23 -19 44 20 28 54 -9 21 -31 34 -31 18z"/>
<path d="M8130 5520 c0 -44 39 -53 64 -15 14 22 15 25 1 25 -8 0 -15 -5 -15
-11 0 -6 -5 -7 -12 -2 -18 11 -38 13 -38 3z"/>
<path d="M8420 5496 c0 -4 5 -17 11 -28 10 -19 9 -20 -15 -16 -23 5 -25 3 -21
-20 3 -19 1 -22 -7 -14 -18 18 -37 14 -36 -5 0 -10 -2 -29 -6 -43 -6 -20 -1
-31 20 -50 26 -24 26 -24 15 -2 -6 12 -9 22 -7 22 3 0 1 12 -5 26 -8 24 -8 25
6 14 8 -7 15 -19 15 -27 0 -34 22 -41 70 -20 71 31 76 38 56 89 -20 49 -51 84
-61 67 -5 -7 -11 -6 -21 2 -8 6 -14 8 -14 5z"/>
<path d="M9340 5464 c-47 -19 -100 -35 -118 -35 -43 1 -86 -17 -149 -63 -28
-20 -53 -36 -57 -36 -5 0 -298 -120 -406 -167 -19 -8 -44 -18 -55 -23 -21 -8
-104 -42 -170 -70 -22 -10 -98 -41 -170 -70 -71 -29 -148 -61 -170 -70 -22
-10 -80 -34 -130 -55 -49 -20 -103 -43 -120 -50 -16 -7 -55 -23 -85 -35 -132
-53 -224 -91 -263 -109 -23 -10 -78 -33 -122 -50 -44 -18 -95 -39 -115 -48
-19 -8 -44 -19 -55 -23 -11 -4 -41 -17 -67 -29 -26 -12 -50 -21 -54 -21 -6 0
-134 -54 -171 -72 -18 -9 -20 -14 -12 -25 9 -10 91 -41 129 -48 3 0 20 -9 37
-18 18 -10 35 -17 38 -17 3 0 31 -12 62 -27 32 -14 60 -27 63 -27 3 -1 36 -16
74 -35 105 -50 253 -147 332 -218 40 -35 76 -63 81 -63 13 0 227 -223 298
-310 147 -182 287 -442 370 -689 12 -36 26 -66 31 -68 5 -2 43 77 83 174 40
98 95 230 122 293 26 63 105 252 174 420 69 168 132 319 139 335 8 17 44 104
81 195 37 91 76 185 87 210 27 60 44 100 56 130 5 14 19 46 31 72 12 26 21 51
21 54 0 3 7 22 16 42 9 21 21 48 26 62 6 14 16 39 23 55 24 57 42 100 55 135
7 19 29 56 47 82 24 33 37 65 44 108 5 34 14 69 19 78 5 9 16 35 25 57 9 22
21 48 26 57 13 25 11 48 -3 48 -7 0 -51 -16 -98 -36z m-747 -546 c20 -21 35
-61 42 -107 l6 -43 -26 30 c-14 17 -38 32 -53 34 -22 2 -27 8 -27 31 -1 36 20
56 28 26 3 -12 10 -18 16 -14 14 8 14 35 1 35 -5 0 -10 5 -10 10 0 14 9 13 23
-2z m-75 -34 c-4 -3 -12 5 -18 18 -12 22 -12 22 6 6 10 -10 15 -20 12 -24z
m152 -42 c0 -10 16 -37 35 -60 20 -22 42 -58 51 -79 l15 -38 -20 25 c-12 14
-23 33 -27 43 -3 9 -9 15 -14 12 -13 -8 -67 77 -62 98 5 23 22 22 22 -1z m-85
-42 c-3 -5 1 -10 9 -10 9 0 16 -5 16 -11 0 -5 -4 -7 -10 -4 -5 3 -10 1 -10 -4
0 -6 -4 -11 -10 -11 -5 0 -10 11 -10 25 0 14 5 25 11 25 5 0 7 -4 4 -10z m194
-50 c14 -14 27 -23 29 -20 2 3 10 -8 17 -25 11 -25 14 -27 20 -12 8 19 25 23
25 6 0 -6 9 -23 21 -37 64 -84 79 -106 74 -110 -3 -3 -13 2 -23 11 -24 22 -31
21 -25 -3 3 -11 12 -20 20 -20 8 0 11 -5 8 -10 -4 -6 -1 -17 5 -25 7 -8 9 -23
5 -32 -6 -15 -9 -13 -20 12 -7 17 -14 24 -14 18 -1 -7 -5 -13 -10 -13 -5 0 -9
24 -8 54 2 49 0 54 -20 54 -26 -1 -33 -35 -9 -44 17 -6 30 -34 16 -34 -5 0
-15 7 -24 15 -17 18 -29 6 -15 -15 11 -19 12 -40 1 -40 -22 0 -51 37 -45 58 4
16 1 22 -11 22 -9 0 -16 7 -16 15 0 28 28 15 35 -16 l7 -31 13 26 c10 18 11
35 5 57 -5 18 -7 36 -4 40 3 5 -5 9 -16 9 -16 0 -20 5 -16 15 3 8 1 15 -4 15
-5 0 -17 15 -26 33 -9 17 -26 43 -38 57 -19 22 -19 23 -1 10 11 -8 31 -26 44
-40z m-109 10 c0 -5 -2 -10 -4 -10 -3 0 -8 5 -11 10 -3 6 -1 10 4 10 6 0 11
-4 11 -10z m-59 -52 c11 -21 11 -22 -4 -9 -10 7 -17 17 -17 22 0 15 9 10 21
-13z m39 -39 c0 -6 -4 -7 -10 -4 -5 3 -10 11 -10 16 0 6 5 7 10 4 6 -3 10 -11
10 -16z m349 -83 c0 -6 -4 -20 -9 -31 -8 -20 -9 -19 -9 1 -1 12 -8 27 -16 34
-24 20 -18 31 10 18 14 -6 25 -16 24 -22z m-324 14 c-4 -6 -11 -7 -17 -4 -7 4
-8 -5 -4 -27 5 -30 5 -31 -4 -10 -13 30 -6 51 15 51 9 0 13 -5 10 -10z m-95
-10 c0 -5 -4 -10 -10 -10 -5 0 -10 5 -10 10 0 6 5 10 10 10 6 0 10 -4 10 -10z
m196 -57 c-8 -9 -36 30 -29 40 3 5 12 -1 20 -13 8 -12 12 -24 9 -27z m-36 -15
c0 -4 -4 -8 -10 -8 -5 0 -10 4 -10 9 0 5 -3 18 -6 28 -5 16 -4 16 10 -1 9 -11
16 -23 16 -28z m-130 12 c0 -5 -4 -10 -10 -10 -5 0 -10 5 -10 10 0 6 5 10 10
10 6 0 10 -4 10 -10z m-66 -15 c-6 -16 -24 -21 -24 -7 0 11 11 22 21 22 5 0 6
-7 3 -15z m245 -50 c0 -5 -6 -1 -14 9 -8 11 -15 24 -15 30 0 5 7 1 15 -10 8
-10 14 -23 14 -29z m-240 -44 c-2 -23 -2 -24 -6 -3 -2 12 -9 22 -14 22 -5 0
-9 4 -9 10 0 5 7 7 15 4 9 -4 14 -17 14 -33z m199 27 c7 -7 12 -19 12 -27 0
-14 -1 -14 -10 -1 -8 12 -10 10 -11 -10 l-1 -25 -8 25 c-16 49 -8 64 18 38z
m-51 -35 c-3 -10 -5 -4 -5 12 0 17 2 24 5 18 2 -7 2 -21 0 -30z m127 -25 c6
-4 7 -10 3 -15 -10 -9 -27 16 -26 37 1 13 1 13 6 0 3 -8 11 -18 17 -22z
m-1164 8 c0 -3 -4 -8 -10 -11 -5 -3 -10 -1 -10 4 0 6 5 11 10 11 6 0 10 -2 10
-4z m727 -68 c-2 -13 -4 -3 -4 22 0 25 2 35 4 23 2 -13 2 -33 0 -45z m167 -35
c-9 -52 -14 -54 -14 -5 0 23 5 42 10 42 7 0 8 -14 4 -37z m120 3 c-6 -15 -34
-31 -34 -19 0 5 30 32 37 33 1 0 0 -6 -3 -14z m-117 -88 c-3 -8 -6 -5 -6 6 -1
11 2 17 5 13 3 -3 4 -12 1 -19z m-30 -20 c-3 -7 -5 -2 -5 12 0 14 2 19 5 13 2
-7 2 -19 0 -25z m133 -3 c0 -8 -2 -15 -4 -15 -2 0 -6 7 -10 15 -3 8 -1 15 4
15 6 0 10 -7 10 -15z m-133 -37 c-3 -8 -6 -5 -6 6 -1 11 2 17 5 13 3 -3 4 -12
1 -19z m103 -4 c0 -8 -4 -14 -10 -14 -5 0 -10 9 -10 21 0 11 5 17 10 14 6 -3
10 -13 10 -21z m-373 -66 c-3 -8 -6 -5 -6 6 -1 11 2 17 5 13 3 -3 4 -12 1 -19z
m-50 -20 c-3 -7 -5 -2 -5 12 0 14 2 19 5 13 2 -7 2 -19 0 -25z m330 -130 c-3
-7 -5 -2 -5 12 0 14 2 19 5 13 2 -7 2 -19 0 -25z m-262 -27 c3 -5 1 -12 -5
-16 -5 -3 -10 1 -10 9 0 18 6 21 15 7z"/>
<path d="M8857 4627 c-3 -8 1 -14 9 -14 8 0 14 6 14 14 0 7 -4 13 -9 13 -5 0
-11 -6 -14 -13z"/>
<path d="M9750 5480 c0 -20 33 -102 165 -415 35 -82 134 -321 221 -530 86
-209 177 -427 201 -485 25 -58 51 -121 58 -140 14 -37 67 -165 90 -215 7 -16
22 -52 33 -80 15 -40 76 -188 125 -305 128 -307 175 -414 184 -417 6 -2 23 33
38 79 15 46 36 101 46 122 11 22 19 45 19 50 0 10 18 45 108 221 8 17 37 63
64 104 26 41 48 77 48 81 0 4 9 15 21 26 11 10 45 50 74 89 74 97 325 351 325
328 0 -3 29 20 64 51 35 31 67 56 70 56 3 0 35 20 72 45 116 79 404 215 520
245 23 5 47 16 53 24 13 16 56 -4 -464 211 -209 86 -384 160 -390 163 -5 4
-15 7 -21 8 -6 1 -35 13 -66 28 -30 14 -57 26 -61 26 -3 0 -26 9 -51 20 -26
11 -48 20 -51 20 -13 2 -152 64 -162 72 -7 6 -13 7 -13 4 0 -4 -12 0 -27 8
-16 8 -46 21 -68 29 -22 8 -62 25 -90 38 -27 12 -52 23 -55 23 -10 2 -126 50
-145 60 -11 5 -24 11 -30 12 -5 1 -32 12 -60 25 -27 12 -54 23 -60 24 -22 5
-261 108 -272 117 -7 6 -13 8 -13 5 0 -3 -19 2 -42 13 -108 46 -124 53 -133
55 -5 2 -32 13 -60 26 -27 12 -54 23 -60 25 -5 1 -49 19 -97 38 -102 42 -108
43 -108 16z m1350 -606 c0 -13 -95 -94 -110 -93 -8 0 10 22 40 49 52 47 70 58
70 44z m129 -87 c1 -5 -6 -1 -15 7 -8 9 -12 21 -8 28 5 8 10 6 15 -8 4 -10 8
-23 8 -27z m29 15 c6 -18 -15 -14 -22 4 -4 10 -1 14 6 12 6 -2 14 -10 16 -16z
m38 -49 c-5 -30 -4 -34 4 -20 6 9 17 17 25 17 11 0 8 -10 -11 -37 -16 -25 -23
-45 -20 -62 3 -14 -1 -39 -9 -56 -15 -29 -15 -29 -10 -3 3 14 8 33 11 42 3 9
2 16 -4 16 -13 0 -32 -54 -33 -99 l-1 -36 -8 30 c-4 17 -8 22 -9 13 0 -10 -8
-18 -16 -18 -8 0 -14 -3 -14 -7 1 -5 1 -14 0 -22 -1 -11 -4 -11 -18 0 -15 13
-16 11 -11 -13 3 -16 1 -28 -3 -28 -5 0 -9 4 -9 10 0 5 -6 7 -14 4 -18 -7 -28
9 -20 31 4 9 13 14 21 10 10 -3 13 -1 10 9 -3 8 0 17 8 20 10 3 12 0 8 -12 -6
-14 -4 -15 9 -4 9 7 18 29 20 49 5 40 -15 112 -26 94 -4 -6 -2 -20 4 -32 6
-11 8 -28 4 -37 -6 -14 -9 -11 -15 13 -7 27 -8 26 -4 -8 3 -27 0 -37 -8 -34
-18 6 -21 66 -3 86 8 9 22 34 31 55 9 21 19 35 22 32 3 -3 12 -1 20 6 17 14
31 2 15 -14 -16 -16 -15 -25 2 -25 8 0 12 6 8 15 -4 11 -1 14 11 9 20 -8 22 4
5 22 -11 10 -10 11 5 6 10 -4 17 -2 17 4 0 6 3 11 6 11 3 0 3 -17 0 -37z
m-258 -28 c3 -10 0 -15 -7 -11 -7 5 -11 -1 -11 -14 0 -25 -23 -22 -28 4 -4 20
17 48 32 43 6 -2 13 -12 14 -22z m402 -18 c0 -10 -4 -16 -10 -12 -5 3 -6 13
-3 23 5 14 3 15 -7 5 -10 -10 -11 -18 -2 -37 9 -21 8 -25 -9 -29 -21 -6 -35 8
-18 18 5 4 8 13 5 20 -7 18 26 57 36 42 4 -7 8 -20 8 -30z m-109 -10 c-8 -8
-11 -7 -11 4 0 20 13 34 18 19 3 -7 -1 -17 -7 -23z m168 -24 c0 -16 -3 -22 -6
-15 -2 6 -9 12 -15 12 -6 0 -7 -7 -4 -16 6 -15 -30 -74 -46 -74 -15 0 -8 23
23 72 35 54 49 61 48 21z m-139 8 c0 -5 -7 -14 -15 -21 -8 -7 -15 -19 -15 -27
0 -8 -4 -11 -10 -8 -17 10 -12 45 5 39 9 -4 15 0 15 10 0 9 5 16 10 16 6 0 10
-4 10 -9z m20 -40 c0 -5 -7 -11 -15 -15 -15 -5 -20 5 -8 17 9 10 23 9 23 -2z
m-322 -47 c-27 -30 -34 -24 -17 15 10 22 17 27 26 20 9 -8 7 -16 -9 -35z m78
-19 c3 -8 -1 -21 -9 -29 -12 -13 -14 -11 -13 15 1 31 13 39 22 14z m-39 -17
c-3 -8 -6 -5 -6 6 -1 11 2 17 5 13 3 -3 4 -12 1 -19z m235 -20 c-7 -7 -12 -8
-12 -2 0 14 12 26 19 19 2 -3 -1 -11 -7 -17z m-182 -112 c0 -3 -4 -8 -10 -11
-5 -3 -10 -1 -10 4 0 6 5 11 10 11 6 0 10 -2 10 -4z m-710 -275 c0 -22 -6 -44
-15 -51 -20 -17 -32 -5 -15 15 11 14 7 19 -12 16 -5 0 -8 4 -8 9 0 6 6 10 14
10 16 0 29 27 19 42 -3 7 -1 8 5 4 7 -4 12 -24 12 -45z m-10 -92 c0 -11 -4
-17 -10 -14 -5 3 -10 13 -10 21 0 8 5 14 10 14 6 0 10 -9 10 -21z m183 -109
c-6 -24 15 -53 33 -46 8 3 13 -8 16 -30 4 -32 -6 -48 -14 -23 -2 6 -4 -19 -6
-55 -1 -38 3 -66 8 -66 13 0 13 -57 -1 -65 -14 -9 -20 -2 -23 27 -1 13 -5 29
-9 35 -4 7 -5 24 -1 38 3 14 2 25 -2 23 -5 -1 -22 10 -37 26 -23 23 -26 31
-16 43 11 12 14 10 25 -14 l12 -28 1 35 c1 29 3 32 12 18 5 -10 9 -24 8 -30
-3 -24 1 -38 10 -38 11 0 1 83 -11 91 -13 9 -23 79 -10 79 5 0 8 -9 5 -20z
m113 -57 c-7 -7 -26 7 -26 19 0 6 6 6 15 -2 9 -7 13 -15 11 -17z m-209 -50
c-3 -10 -5 -4 -5 12 0 17 2 24 5 18 2 -7 2 -21 0 -30z m253 -75 c0 -8 5 -19
11 -25 8 -8 7 -17 -5 -34 -11 -16 -16 -19 -17 -9 0 8 -1 33 -2 55 -2 32 -5 39
-19 37 -20 -3 -21 -1 -12 22 5 13 9 12 25 -8 10 -13 19 -30 19 -38z m-202 -45
c-4 -23 -6 -25 -12 -10 -5 9 -5 34 0 55 7 34 8 35 12 10 2 -16 2 -40 0 -55z
m276 24 c4 -15 11 -25 15 -22 5 3 15 -10 21 -28 l12 -32 8 25 c8 24 8 24 7 -5
0 -17 2 -36 7 -43 4 -7 3 -12 -3 -12 -6 0 -18 14 -26 30 -22 42 -47 70 -57 64
-4 -3 -8 1 -8 8 0 20 13 64 16 53 1 -6 5 -23 8 -38z m-234 -47 c0 -12 7 -32
16 -45 10 -15 12 -25 5 -25 -15 0 -14 -19 3 -52 12 -23 12 -28 2 -28 -26 0
-64 111 -51 150 8 26 25 26 25 0z m227 -5 c9 -24 -1 -27 -15 -5 -8 13 -8 20
-2 20 6 0 13 -7 17 -15z m-87 -15 c0 -11 -2 -20 -4 -20 -2 0 -6 9 -9 20 -3 11
-1 20 4 20 5 0 9 -9 9 -20z m53 7 c3 -8 1 -20 -4 -28 -6 -10 -9 -7 -9 14 0 29
5 35 13 14z m61 -62 c3 -8 1 -15 -4 -15 -6 0 -10 7 -10 15 0 8 2 15 4 15 2 0
6 -7 10 -15z m-127 -17 c-3 -8 -6 -5 -6 6 -1 11 2 17 5 13 3 -3 4 -12 1 -19z
m87 -29 c-7 -13 -24 7 -24 29 0 10 4 10 16 -2 8 -9 12 -21 8 -27z m-134 21 c0
-5 -5 -10 -11 -10 -5 0 -7 5 -4 10 3 6 8 10 11 10 2 0 4 -4 4 -10z m321 -43
c-8 -8 -11 -7 -11 4 0 20 13 34 18 19 3 -7 -1 -17 -7 -23z m-241 -8 c0 -6 -4
-7 -10 -4 -5 3 -10 11 -10 16 0 6 5 7 10 4 6 -3 10 -11 10 -16z m40 -5 c0 -11
6 -14 23 -9 17 6 19 5 11 -5 -15 -15 -54 -4 -54 16 0 8 5 14 10 14 6 0 10 -7
10 -16z m145 -23 c3 -5 1 -12 -4 -15 -5 -3 -11 1 -15 9 -6 16 9 21 19 6z
m-240 -11 c3 -5 2 -10 -4 -10 -5 0 -13 5 -16 10 -3 6 -2 10 4 10 5 0 13 -4 16
-10z m208 -4 c6 -14 -19 -44 -28 -34 -7 6 6 48 15 48 4 0 10 -6 13 -14z m-253
0 c0 -3 -4 -8 -10 -11 -5 -3 -10 -1 -10 4 0 6 5 11 10 11 6 0 10 -2 10 -4z
m90 -31 c11 -13 10 -14 -4 -9 -9 3 -16 10 -16 15 0 13 6 11 20 -6z m40 -15 c0
-5 -5 -10 -11 -10 -5 0 -7 5 -4 10 3 6 8 10 11 10 2 0 4 -4 4 -10z m121 -37
c14 -11 18 -12 22 -1 3 7 6 3 6 -10 1 -12 -6 -25 -14 -28 -18 -7 -75 14 -75
27 0 5 -7 9 -15 9 -8 0 -15 7 -15 15 0 13 7 15 38 9 20 -4 44 -13 53 -21z m71
5 c-7 -7 -12 -8 -12 -2 0 14 12 26 19 19 2 -3 -1 -11 -7 -17z m-288 -24 c3 -9
6 -25 6 -37 0 -27 -16 -11 -25 26 -8 29 8 39 19 11z m106 -99 c10 6 35 -24 27
-32 -4 -3 -12 -1 -19 4 -20 16 -58 26 -58 15 0 -6 11 -13 25 -16 14 -4 25 -14
25 -24 1 -21 25 -54 33 -45 10 10 8 25 -2 19 -5 -3 -12 1 -15 10 -5 12 -2 15
12 12 15 -4 18 -1 14 18 -6 30 6 31 18 2 7 -19 9 -19 9 -5 1 25 21 11 21 -15
0 -11 -8 -22 -19 -25 -11 -3 -18 -10 -15 -16 2 -7 0 -19 -5 -26 -8 -12 -13
-11 -30 10 -19 22 -20 23 -21 4 -1 -13 -4 -15 -7 -6 -8 20 -41 51 -46 43 -2
-4 -2 -1 0 6 1 7 -8 30 -22 50 -31 45 -31 55 -3 47 17 -6 20 -4 15 9 -20 47
-20 51 -4 31 16 -20 16 -20 17 5 1 19 6 12 22 -27 11 -29 24 -51 28 -48z m57
48 c23 -26 43 -51 43 -55 0 -12 -13 -10 -35 6 -11 7 -23 14 -28 14 -17 2 -33
18 -44 44 -11 25 -8 33 16 37 2 1 24 -20 48 -46z m56 -17 c20 -16 22 -26 4
-26 -7 0 -18 9 -25 20 -14 23 -5 26 21 6z"/>
<path d="M11227 4669 c-6 -23 8 -26 17 -3 3 9 11 12 18 8 7 -4 9 -3 5 1 -14
16 -35 13 -40 -6z"/>
<path d="M10780 3250 c0 -5 5 -10 11 -10 5 0 7 5 4 10 -3 6 -8 10 -11 10 -2 0
-4 -4 -4 -10z"/>
<path d="M7685 5445 c16 -49 15 -48 30 -35 8 7 15 20 14 29 0 12 -2 11 -8 -4
-8 -19 -8 -19 -15 3 -4 12 -11 22 -16 22 -5 0 -7 -7 -5 -15z"/>
<path d="M7826 5317 c3 -10 9 -15 12 -12 3 3 0 11 -7 18 -10 9 -11 8 -5 -6z"/>
<path d="M9579 5240 l-15 -49 24 6 c20 5 24 3 19 -10 -4 -11 -2 -14 9 -10 8 3
14 -1 14 -11 0 -9 -4 -16 -10 -16 -5 0 -10 -4 -10 -9 0 -5 9 -7 20 -4 11 3 20
8 20 11 0 7 -51 142 -53 142 -1 0 -9 -23 -18 -50z"/>
<path d="M9548 5086 c-33 -30 -55 -64 -77 -116 -17 -40 -30 -75 -27 -77 2 -2
15 7 30 21 16 17 23 32 19 43 -5 12 -2 15 10 10 18 -7 31 7 40 41 5 20 2 22
-16 16 -22 -7 -22 -7 -3 15 13 14 22 18 26 10 4 -6 10 1 14 18 4 15 15 36 23
46 28 30 10 18 -39 -27z"/>
<path d="M9623 5052 c-12 -25 -20 -48 -18 -50 7 -7 45 62 45 81 0 24 -2 22
-27 -31z"/>
<path d="M9570 4985 c-7 -9 -11 -17 -9 -20 3 -2 10 5 17 15 14 24 10 26 -8 5z"/>
<path d="M7280 4950 c0 -5 5 -10 10 -10 6 0 10 5 10 10 0 6 -4 10 -10 10 -5 0
-10 -4 -10 -10z"/>
<path d="M9530 4945 c-11 -13 -10 -14 4 -9 9 3 16 10 16 15 0 13 -6 11 -20 -6z"/>
<path d="M7341 4907 c-6 -6 -11 -17 -11 -24 0 -11 7 -10 31 2 17 9 28 19 25
23 -11 11 -34 10 -45 -1z"/>
<path d="M7200 4860 c0 -8 -10 -21 -21 -29 -34 -20 -3 -33 34 -14 21 10 26 17
17 23 -7 4 -16 14 -21 21 -7 12 -9 11 -9 -1z"/>
<path d="M9366 4713 c-9 -22 -3 -25 19 -10 15 12 16 15 2 20 -9 3 -18 -1 -21
-10z"/>
<path d="M9251 4438 c-6 -13 -19 -45 -30 -72 -26 -61 -26 -74 -2 -52 11 10 25
16 32 14 8 -3 1 -14 -16 -31 -19 -17 -32 -23 -36 -15 -6 9 -49 -71 -49 -91 0
-4 -11 -31 -25 -59 -14 -29 -25 -58 -25 -66 0 -23 40 -7 77 31 19 18 40 33 48
33 8 0 15 4 15 8 0 4 18 27 41 51 33 34 42 51 46 89 2 26 11 57 18 68 13 20
12 21 -6 17 -16 -4 -18 -2 -12 13 7 18 6 18 -11 2 -21 -22 -27 -23 -20 -3 3 8
2 20 -3 27 -4 7 -8 22 -8 32 0 28 -23 31 -34 4z m2 -228 c-17 -15 -29 -31 -26
-34 3 -3 -1 -11 -9 -19 -11 -11 -16 -12 -26 -1 -9 10 -9 15 0 20 7 5 5 11 -8
21 -18 14 -18 15 6 33 14 11 30 20 37 20 6 0 15 5 19 12 5 7 2 9 -9 5 -11 -4
-14 -2 -10 9 5 13 11 11 32 -11 l26 -26 -32 -29z"/>
<path d="M10000 4210 c0 -5 7 -7 15 -4 8 4 15 8 15 10 0 2 -7 4 -15 4 -8 0
-15 -4 -15 -10z"/>
<path d="M9972 4186 c-17 -37 -15 -45 4 -18 8 12 14 27 12 33 -2 6 -9 -1 -16
-15z"/>
<path d="M9175 4070 c-3 -5 -1 -10 4 -10 6 0 11 5 11 10 0 6 -2 10 -4 10 -3 0
-8 -4 -11 -10z"/>
<path d="M10005 4040 c-3 -6 1 -7 9 -4 18 7 21 14 7 14 -6 0 -13 -4 -16 -10z"/>
<path d="M9078 4013 c-3 -10 -9 -27 -14 -38 -7 -17 -5 -18 8 -8 8 7 18 10 21
6 4 -3 7 2 7 12 0 17 1 17 18 2 10 -10 22 -14 25 -10 4 3 7 -1 7 -9 0 -19 27
-31 35 -17 4 5 1 8 -7 7 -8 -2 -13 7 -13 27 0 29 -2 30 -34 26 -19 -2 -36 2
-41 9 -5 8 -9 6 -12 -7z"/>
<path d="M9246 4022 c-3 -4 4 -9 15 -9 23 -2 25 3 4 10 -8 4 -16 3 -19 -1z"/>
<path d="M9822 3994 c10 -10 20 -16 22 -13 3 3 -5 11 -17 18 -21 13 -21 12 -5
-5z"/>
<path d="M9888 3998 c-16 -5 -28 -14 -28 -19 0 -8 54 14 69 27 7 7 -13 3 -41
-8z"/>
<path d="M8991 3807 c-13 -28 -37 -86 -53 -127 -16 -41 -37 -93 -47 -115 -10
-22 -33 -76 -51 -120 -17 -44 -38 -93 -46 -110 -26 -57 -144 -354 -144 -365 0
-2 7 5 15 17 15 21 65 39 98 34 9 -1 17 3 17 9 0 6 6 8 13 4 6 -4 3 3 -8 15
-16 19 -17 24 -5 31 22 14 34 12 58 -10 18 -17 25 -18 47 -8 18 8 25 18 22 30
-5 19 -6 19 63 3 14 -3 18 -2 10 1 -8 4 -30 20 -48 35 -18 16 -36 29 -40 29
-16 1 -44 29 -38 39 5 7 23 4 56 -8 27 -10 51 -16 54 -13 10 10 6 62 -4 62 -5
0 -10 7 -10 15 0 18 21 20 38 3 9 -9 12 -9 12 1 0 8 7 10 21 6 12 -4 43 -8 69
-9 37 -2 47 1 43 11 -3 9 0 11 10 7 12 -4 14 -1 10 14 -3 11 -16 22 -32 25
-19 4 -30 15 -40 42 -12 35 -11 37 23 80 34 41 48 85 26 85 -5 0 -10 7 -10 15
0 8 -7 15 -15 15 -9 0 -15 -9 -15 -21 0 -14 -5 -19 -14 -16 -8 3 -17 -1 -20
-9 -3 -9 -10 -12 -16 -9 -5 3 -10 1 -10 -4 0 -6 8 -11 17 -11 13 0 14 -3 5
-12 -8 -8 -15 -8 -27 2 -12 10 -15 10 -15 -4 0 -9 -5 -16 -11 -16 -7 0 -10 12
-7 30 3 18 1 27 -4 22 -5 -5 -10 -22 -12 -38 -2 -16 -4 -31 -5 -34 0 -3 -10
12 -20 31 -20 37 -18 85 2 72 6 -3 23 -7 38 -8 21 -1 27 3 26 17 -1 10 -6 18
-11 18 -6 0 -5 5 2 12 9 9 19 5 42 -17 23 -22 30 -25 30 -12 0 8 -4 19 -10 22
-5 3 -10 12 -9 18 0 9 2 9 6 0 2 -7 10 -13 17 -13 8 0 24 -8 37 -18 13 -11 34
-21 45 -24 17 -4 22 -1 22 18 0 13 -4 21 -9 18 -5 -3 -9 5 -9 17 0 21 -1 21
-12 6 -20 -26 -69 -9 -90 32 -14 28 -15 36 -4 47 8 7 24 12 37 12 53 -3 79 2
79 17 0 8 -8 15 -17 15 -13 0 -14 3 -5 12 15 15 16 38 2 38 -5 0 -9 -3 -9 -7
4 -23 -3 -25 -17 -5 -17 25 -34 29 -34 7 0 -8 -4 -15 -10 -15 -5 0 -7 6 -4 13
3 9 -6 13 -32 14 -37 1 -58 18 -46 38 7 10 15 55 10 55 -2 0 -14 -24 -27 -53z
m117 -330 c6 3 12 0 12 -6 0 -10 -14 -15 -32 -12 -5 0 -8 -3 -8 -9 0 -5 -5
-10 -11 -10 -8 0 -8 4 0 14 6 7 9 22 5 32 -5 17 -4 17 8 3 7 -9 19 -14 26 -12z"/>
<path d="M9558 3432 c-41 -5 -34 -22 10 -22 20 -1 56 -5 80 -9 23 -5 42 -5 42
-1 0 13 -29 32 -42 27 -7 -2 -24 -1 -38 2 -14 4 -37 5 -52 3z"/>
<path d="M9435 3420 c3 -5 8 -10 11 -10 2 0 4 5 4 10 0 6 -5 10 -11 10 -5 0
-7 -4 -4 -10z"/>
<path d="M9470 3426 c0 -10 28 -13 41 -5 10 6 7 9 -13 9 -16 0 -28 -2 -28 -4z"/>
<path d="M9740 3415 c-7 -9 -8 -15 -2 -15 5 0 12 7 16 15 3 8 4 15 2 15 -2 0
-9 -7 -16 -15z"/>
<path d="M9182 3373 c-18 -32 -15 -51 4 -25 8 12 14 28 11 35 -2 7 -8 3 -15
-10z"/>
<path d="M9615 3310 c3 -5 10 -10 16 -10 5 0 9 5 9 10 0 6 -7 10 -16 10 -8 0
-12 -4 -9 -10z"/>
<path d="M9650 3310 c0 -5 7 -7 15 -4 8 4 15 8 15 10 0 2 -7 4 -15 4 -8 0 -15
-4 -15 -10z"/>
<path d="M9675 3290 c3 -5 10 -10 16 -10 5 0 9 5 9 10 0 6 -7 10 -16 10 -8 0
-12 -4 -9 -10z"/>
<path d="M9735 3280 c-2 -3 5 -7 16 -7 10 -1 19 2 19 6 0 9 -29 10 -35 1z"/>
</g>
</svg>
